<?xml version="1.0" standalone="no"?>
<!DOCTYPE svg PUBLIC "-//W3C//DTD SVG 20010904//EN"
 "http://www.w3.org/TR/2001/REC-SVG-20010904/DTD/svg10.dtd">
<svg version="1.0" xmlns="http://www.w3.org/2000/svg"
 width="300.000000pt" height="300.000000pt" viewBox="0 0 300.000000 300.000000"
 preserveAspectRatio="xMidYMid meet">
<metadata>
Created by potrace 1.14, written by Peter Selinger 2001-2017
</metadata>
<g transform="translate(0.000000,300.000000) scale(0.100000,-0.100000)"
fill="#000000" stroke="none">
<path d="M1407 2964 c-2 -2 -36 -6 -76 -9 -41 -3 -77 -8 -81 -10 -4 -3 -24 -7
-44 -10 -20 -4 -66 -15 -103 -26 -38 -11 -75 -21 -83 -23 -8 -3 -48 -18 -88
-35 -191 -82 -334 -181 -484 -335 -54 -55 -98 -103 -98 -107 0 -4 -6 -14 -13
-21 -31 -33 -90 -125 -136 -213 -28 -52 -50 -96 -50 -98 1 -1 -6 -18 -14 -39
-21 -50 -64 -194 -73 -243 -3 -22 -8 -49 -10 -60 -23 -123 -22 -421 2 -485 3
-8 7 -27 9 -41 18 -130 113 -365 210 -514 106 -164 296 -347 470 -452 97 -58
285 -137 379 -160 152 -36 225 -45 351 -46 96 -1 210 7 268 18 15 3 38 7 51 9
120 21 319 97 451 174 232 133 470 394 576 628 12 27 30 67 40 89 22 50 66
198 74 256 4 24 9 47 11 51 8 13 17 145 17 248 0 101 -6 174 -24 261 -6 30
-13 65 -15 79 -18 91 -95 280 -161 393 -33 56 -56 89 -126 182 -24 32 -166
175 -213 214 -16 13 -47 36 -69 50 -22 14 -42 28 -45 31 -23 26 -214 123 -305
155 -27 9 -59 21 -70 25 -38 15 -187 47 -265 56 -53 7 -258 13 -263 8z m58
-514 c7 -6 18 -42 25 -80 16 -84 16 -84 100 -94 19 -2 46 -7 60 -10 22 -6 29
-1 53 39 15 25 27 48 27 51 0 3 8 16 18 28 13 17 27 22 52 21 47 -2 132 -40
163 -73 l26 -27 -20 -55 c-30 -87 -33 -117 -12 -129 10 -5 34 -25 53 -45 19
-19 40 -36 46 -36 6 0 41 16 78 35 37 19 72 35 78 35 31 0 138 -153 138 -197
0 -7 -29 -34 -64 -60 -36 -27 -67 -53 -70 -59 -2 -6 6 -44 18 -85 25 -81 16
-75 138 -82 26 -1 50 -6 54 -10 29 -29 38 -151 16 -217 -12 -34 -13 -35 -69
-38 -32 -1 -67 -4 -78 -6 -11 -3 -26 -5 -32 -5 -7 -1 -13 -7 -13 -15 0 -7 -9
-42 -20 -77 l-21 -64 23 -17 c26 -20 29 -22 79 -60 48 -36 43 -71 -24 -170
-48 -72 -71 -77 -150 -34 -36 20 -71 36 -79 36 -20 0 -131 -107 -124 -119 4
-5 18 -39 31 -76 l25 -65 -28 -29 c-37 -39 -104 -71 -160 -77 -42 -5 -48 -3
-58 18 -44 95 -66 127 -87 124 -12 -3 -22 -5 -22 -6 0 -1 -25 -4 -55 -6 -30
-3 -60 -10 -66 -15 -6 -5 -17 -43 -24 -84 -7 -41 -16 -75 -19 -76 -3 0 -15 -3
-26 -6 -44 -12 -91 -9 -148 8 -32 10 -62 20 -65 23 -8 9 -10 98 -2 126 4 14 5
30 3 37 -4 10 -141 83 -156 83 -3 0 -31 -25 -62 -56 -62 -62 -78 -64 -139 -21
-34 23 -98 87 -88 87 3 0 1 5 -6 12 -7 7 -12 18 -12 26 0 13 36 66 73 106 22
25 22 39 -3 61 -11 10 -20 24 -20 32 0 7 -4 13 -8 13 -5 0 -16 16 -25 36 -13
27 -22 34 -36 29 -18 -5 -40 -9 -117 -22 -27 -4 -34 0 -54 31 -25 41 -50 126
-50 172 0 25 6 33 38 46 55 23 75 31 90 34 24 5 27 14 28 100 1 85 -4 96 -41
104 -20 5 -61 20 -85 33 -19 9 -25 21 -25 47 -1 47 22 127 47 169 22 35 30 36
118 15 68 -16 82 -8 117 66 4 8 15 24 25 34 10 11 18 24 18 28 0 12 -51 88
-60 88 -4 0 -12 11 -18 25 -10 21 -9 32 3 54 21 41 86 100 134 122 38 17 41
17 54 1 7 -9 33 -36 58 -60 l45 -42 51 24 c28 14 63 28 78 32 l27 7 -5 88 -4
88 32 16 c18 8 50 17 71 21 22 3 41 8 44 11 7 7 82 -6 95 -17z"/>
<path d="M1445 2179 c-22 -4 -58 -9 -80 -12 -73 -9 -218 -69 -277 -114 -58
-45 -157 -154 -190 -208 -41 -67 -86 -193 -96 -264 -32 -245 71 -491 274 -649
45 -35 194 -109 234 -117 297 -58 556 32 726 250 62 79 116 198 130 284 3 18
8 43 10 55 6 23 5 137 -1 176 -11 71 -42 177 -55 185 -6 3 -10 13 -10 21 0 29
-74 130 -147 202 -58 57 -96 83 -167 117 -84 40 -249 85 -263 72 -3 -3 -15 -2
-27 2 -11 4 -39 4 -61 0z"/>
</g>
</svg>
